<svg width="37" height="38" viewBox="0 0 37 38" fill="none" xmlns="http://www.w3.org/2000/svg">
<g id="2">
<path id="Oval" d="M18.5 37.4995C28.7173 37.4995 37 29.2168 37 18.9995C37 8.78224 28.7173 0.499512 18.5 0.499512C8.28273 0.499512 0 8.78224 0 18.9995C0 29.2168 8.28273 37.4995 18.5 37.4995Z" fill="#1A2942"/>
<path id="instagram" fill-rule="evenodd" clip-rule="evenodd" d="M18.5002 12.8328C16.8249 12.8328 16.6162 12.84 15.9574 12.8708C13.7169 12.9736 12.4733 14.2162 12.3705 16.4567C12.3407 17.1155 12.3335 17.3252 12.3335 18.9994C12.3335 20.6747 12.3407 20.8844 12.3705 21.5422C12.4733 23.7817 13.7169 25.0263 15.9574 25.1291C16.6162 25.1589 16.8249 25.1661 18.5002 25.1661C20.1754 25.1661 20.3851 25.1589 21.0439 25.1291C23.2804 25.0263 24.5291 23.7837 24.6298 21.5422C24.6596 20.8844 24.6668 20.6747 24.6668 18.9994C24.6668 17.3252 24.6596 17.1155 24.6298 16.4567C24.5291 14.2192 23.2845 12.9725 21.0439 12.8708C20.3851 12.84 20.1754 12.8328 18.5002 12.8328ZM18.5 13.9448C20.1465 13.9448 20.3418 13.951 20.9923 13.9808C22.6645 14.0568 23.4436 14.8492 23.5207 16.5081C23.5494 17.1587 23.5556 17.3529 23.5556 18.9994C23.5556 20.6459 23.5494 20.8412 23.5207 21.4907C23.4436 23.1486 22.6656 23.943 20.9923 24.0191C20.3418 24.0479 20.1475 24.0551 18.5 24.0551C16.8535 24.0551 16.6582 24.0489 16.0086 24.0191C14.3334 23.942 13.5574 23.1465 13.4803 21.4907C13.4515 20.8412 13.4443 20.6459 13.4443 18.9994C13.4443 17.3529 13.4515 17.1576 13.4803 16.5081C13.5564 14.8482 14.3354 14.0558 16.0086 13.9797C16.6582 13.9499 16.8535 13.9448 18.5 13.9448ZM15.3335 18.9994C15.3335 17.2501 16.7518 15.8328 18.5001 15.8328C20.2483 15.8328 21.6667 17.2512 21.6667 18.9994C21.6667 20.7487 20.2483 22.166 18.5001 22.166C16.7518 22.166 15.3335 20.7487 15.3335 18.9994ZM18.4999 21.055C17.3642 21.055 16.4443 20.1351 16.4443 18.9994C16.4443 17.8648 17.3642 16.9439 18.4999 16.9439C19.6346 16.9439 20.5565 17.8637 20.5565 18.9994C20.5565 20.1351 19.6346 21.055 18.4999 21.055ZM21.0508 15.7085C21.0508 15.2994 21.3828 14.9685 21.7908 14.9685C22.2009 14.9685 22.5318 15.2994 22.5318 15.7085C22.5318 16.1175 22.1998 16.4485 21.7908 16.4485C21.3817 16.4485 21.0508 16.1165 21.0508 15.7085Z" fill="white"/>
</g>
</svg>
