<svg width="54" height="54" viewBox="0 0 54 54" fill="none" xmlns="http://www.w3.org/2000/svg">
<g id="administration (1) 1" clip-path="url(#clip0_42_435)">
<path id="Vector" d="M30.5859 54H23.4141C22.251 54 21.3047 53.0537 21.3047 51.8906V48.7418C19.3201 48.2231 17.4262 47.4379 15.6555 46.3992L13.4271 48.6277C12.6043 49.45 11.2662 49.45 10.4439 48.6277L5.37231 43.5561C4.54999 42.7338 4.54999 41.3957 5.37231 40.5733L7.60075 38.3445C6.56213 36.5738 5.77689 34.6799 5.25819 32.6953H2.10938C0.946335 32.6953 0 31.749 0 30.5859V23.4141C0 22.251 0.946335 21.3047 2.10938 21.3047H5.25119C5.76823 19.3168 6.55266 17.4196 7.59128 15.6456L5.37231 13.4267C4.54999 12.6043 4.54999 11.2662 5.37231 10.4439L10.4439 5.37231C11.2662 4.54999 12.6043 4.54999 13.4271 5.37231L15.6382 7.58386C17.4139 6.5403 19.3136 5.75175 21.3047 5.23141V2.10938C21.3047 0.946335 22.251 0 23.4141 0H30.5859C31.749 0 32.6953 0.946335 32.6953 2.10938V5.22441C34.6893 5.7431 36.5927 6.53082 38.3713 7.57397L40.5733 5.37231C41.3957 4.54999 42.7338 4.54999 43.5561 5.37231L48.6277 10.4439C49.45 11.2662 49.45 12.6043 48.6277 13.4271L46.426 15.6287C47.4692 17.4073 48.2569 19.3107 48.7756 21.3047H51.8906C53.0537 21.3047 54 22.251 54 23.4141V30.5859C54 31.749 53.0537 32.6953 51.8906 32.6953H48.7686C48.2482 34.6864 47.4593 36.5861 46.4161 38.3618L48.6273 40.5733C49.4496 41.3957 49.4496 42.7338 48.6273 43.5561L43.5561 48.6277C42.7338 49.45 41.3957 49.45 40.5729 48.6277L38.3544 46.4087C36.5799 47.4473 34.6827 48.2318 32.6953 48.7488V51.8906C32.6953 53.0537 31.749 54 30.5859 54ZM15.4973 44.011C15.6934 44.011 15.8899 44.0653 16.0646 44.1766C18.0714 45.4579 20.2661 46.3679 22.5872 46.8817C23.0705 46.9888 23.4141 47.4169 23.4141 47.9117V51.8906H30.5859V47.9174C30.5859 47.4222 30.9304 46.9937 31.414 46.8875C33.7385 46.3758 35.9364 45.4669 37.9465 44.1865C38.3634 43.9207 38.9093 43.9805 39.2591 44.3302L42.0647 47.1359L47.1359 42.0647L44.3364 39.2653C43.9862 38.9151 43.9269 38.3684 44.1939 37.951C45.4797 35.9405 46.3935 33.7405 46.9089 31.4128C47.0156 30.9295 47.444 30.5859 47.9384 30.5859H51.8906V23.4141H47.9442C47.449 23.4141 47.0205 23.0696 46.9142 22.586C46.4013 20.2549 45.4892 18.0516 44.2034 16.0378C43.9372 15.6205 43.9969 15.0746 44.3467 14.7244L47.1359 11.9353L42.0647 6.86412L39.2756 9.65327C38.9258 10.0031 38.3795 10.0628 37.9622 9.79665C35.9484 8.51083 33.7451 7.59911 31.414 7.08577C30.9304 6.97948 30.5859 6.55101 30.5859 6.0558V2.10938H23.4141V6.06157C23.4141 6.55637 23.0705 6.98442 22.5876 7.09154C20.2595 7.60693 18.0595 8.52031 16.049 9.80612C15.632 10.0731 15.0849 10.0138 14.7351 9.66357L11.9353 6.86412L6.86412 11.9353L9.66975 14.7413C10.0195 15.0907 10.0793 15.6366 9.81354 16.0535C8.53308 18.0636 7.62424 20.2615 7.11255 22.586C7.00626 23.0696 6.57779 23.4141 6.08258 23.4141H2.10938V30.5859H6.08835C6.58315 30.5859 7.0112 30.9299 7.11832 31.4128C7.63206 33.7343 8.54256 35.9286 9.82343 37.9354C10.0896 38.3527 10.0302 38.899 9.68005 39.2488L6.86412 42.0647L11.9353 47.1363L14.7512 44.3199C14.9551 44.1164 15.225 44.011 15.4973 44.011Z" fill="white"/>
<path id="Vector_2" d="M27.0007 42.3894C23.0576 42.3894 19.1144 40.8882 16.1123 37.8864C10.1084 31.8825 10.1084 22.1135 16.1123 16.1096C18.534 13.6883 21.6045 12.1739 24.9919 11.7306C28.2717 11.3013 31.6578 11.9514 34.5277 13.5606C35.0357 13.8453 35.2166 14.488 34.9319 14.996C34.6468 15.5044 34.0041 15.6852 33.4961 15.4001C28.3314 12.5039 21.7961 13.409 17.6041 17.6014C12.4225 22.7825 12.4225 31.2135 17.6041 36.395C20.1947 38.9852 23.5981 40.2805 27.0007 40.2809C30.4041 40.2813 33.8067 38.986 36.3977 36.395C40.4488 32.3439 41.452 26.181 38.8935 21.0596C38.6332 20.5385 38.8445 19.9048 39.3657 19.6444C39.8864 19.3841 40.5201 19.5958 40.7804 20.117C43.7451 26.0513 42.5833 33.1926 37.8891 37.8864C34.887 40.8882 30.9438 42.3894 27.0007 42.3894Z" fill="white"/>
<path id="Vector_3" d="M37.3711 18.1406C37.0926 18.1406 36.8215 18.0286 36.6242 17.8312C36.4281 17.6351 36.3164 17.364 36.3164 17.0859C36.3164 16.8083 36.4281 16.5363 36.6242 16.3402C36.8203 16.1437 37.0926 16.0312 37.3711 16.0312C37.6484 16.0312 37.9203 16.1437 38.1168 16.3402C38.3129 16.5363 38.4258 16.8083 38.4258 17.0859C38.4258 17.364 38.3129 17.6351 38.1168 17.8312C37.9194 18.0286 37.6484 18.1406 37.3711 18.1406Z" fill="white"/>
<path id="Vector_4" d="M25.5134 34.7659C25.2337 34.7659 24.9655 34.6547 24.7677 34.4569L18.0981 27.7868C17.6861 27.3753 17.6861 26.7074 18.0981 26.2954L21.8809 22.5122C22.0787 22.3144 22.3469 22.2036 22.6266 22.2036C22.9064 22.2036 23.175 22.3144 23.3727 22.5122L25.5134 24.6533L30.6315 19.5356C31.0431 19.1236 31.7109 19.1236 32.1229 19.5356L35.9062 23.3188C36.3178 23.7304 36.3178 24.3982 35.9062 24.8102L26.2595 34.4569C26.0614 34.6547 25.7932 34.7659 25.5134 34.7659ZM20.3351 27.0411L25.5134 32.2194L33.6687 24.0645L31.3772 21.7731L26.2595 26.8908C26.0618 27.0885 25.7932 27.1998 25.5134 27.1998C25.2337 27.1998 24.9655 27.0885 24.7677 26.8908L22.6266 24.7497L20.3351 27.0411Z" fill="white"/>
</g>
<defs>
<clipPath id="clip0_42_435">
<rect width="54" height="54" fill="white"/>
</clipPath>
</defs>
</svg>
