<svg width="16" height="16" viewBox="0 0 16 16" fill="none" xmlns="http://www.w3.org/2000/svg">
<g id="icons/Cup/Line">
<path id="Shape" fill-rule="evenodd" clip-rule="evenodd" d="M10.6654 3.33284H5.33203C4.96384 3.33284 4.66536 3.63132 4.66536 3.99951V6.66618C4.66536 8.50713 6.15775 9.99951 7.9987 9.99951C9.83965 9.99951 11.332 8.50713 11.332 6.66618V3.99951C11.332 3.63132 11.0336 3.33284 10.6654 3.33284ZM5.33203 1.99951C4.22746 1.99951 3.33203 2.89494 3.33203 3.99951V6.66618C3.33203 9.24351 5.42137 11.3328 7.9987 11.3328C10.576 11.3328 12.6654 9.24351 12.6654 6.66618V3.99951C12.6654 2.89494 11.7699 1.99951 10.6654 1.99951H5.33203Z" fill="#FCFCFD"/>
<g id="Shape_2">
<path fill-rule="evenodd" clip-rule="evenodd" d="M0.667969 5.33545C0.667969 4.23088 1.5634 3.33545 2.66797 3.33545H4.66797V8.66878H3.33464C1.86188 8.66878 0.667969 7.47488 0.667969 6.00212V5.33545ZM2.66797 4.66878H3.33464V7.33545C2.59826 7.33545 2.0013 6.7385 2.0013 6.00212V5.33545C2.0013 4.96726 2.29978 4.66878 2.66797 4.66878Z" fill="#FCFCFD"/>
<path fill-rule="evenodd" clip-rule="evenodd" d="M15.3346 5.33545C15.3346 4.23088 14.4392 3.33545 13.3346 3.33545H11.3346V8.66878H12.668C14.1407 8.66878 15.3346 7.47488 15.3346 6.00212V5.33545ZM13.3346 4.66878H12.668V7.33545C13.4043 7.33545 14.0013 6.7385 14.0013 6.00212V5.33545C14.0013 4.96726 13.7028 4.66878 13.3346 4.66878Z" fill="#FCFCFD"/>
</g>
<path id="Shape_3" d="M7.9987 9.99951C7.63051 9.99951 7.33203 10.298 7.33203 10.6662V12.6662H5.9987C5.63051 12.6662 5.33203 12.9647 5.33203 13.3328C5.33203 13.701 5.63051 13.9995 5.9987 13.9995H9.9987C10.3669 13.9995 10.6654 13.701 10.6654 13.3328C10.6654 12.9647 10.3669 12.6662 9.9987 12.6662H8.66536V10.6662C8.66536 10.298 8.36689 9.99951 7.9987 9.99951Z" fill="#FCFCFD"/>
</g>
</svg>
