<svg width="17" height="16" viewBox="0 0 17 16" fill="none" xmlns="http://www.w3.org/2000/svg">
<g id="icons/Donut/Line">
<g id="Shape">
<path fill-rule="evenodd" clip-rule="evenodd" d="M11.4654 8.00212C11.4654 9.47488 10.2715 10.6688 8.79875 10.6688C7.32599 10.6688 6.13208 9.47488 6.13208 8.00212C6.13208 6.52936 7.32599 5.33545 8.79875 5.33545C10.2715 5.33545 11.4654 6.52936 11.4654 8.00212ZM10.1321 8.00212C10.1321 8.7385 9.53513 9.33545 8.79875 9.33545C8.06237 9.33545 7.46541 8.7385 7.46541 8.00212C7.46541 7.26574 8.06237 6.66878 8.79875 6.66878C9.53513 6.66878 10.1321 7.26574 10.1321 8.00212Z" fill="#FCFCFD"/>
<path fill-rule="evenodd" clip-rule="evenodd" d="M15.4654 8.00212C15.4654 11.684 12.4806 14.6688 8.79875 14.6688C5.11685 14.6688 2.13208 11.684 2.13208 8.00212C2.13208 4.32022 5.11685 1.33545 8.79875 1.33545C12.4806 1.33545 15.4654 4.32022 15.4654 8.00212ZM14.1321 8.00212C14.1321 10.9476 11.7443 13.3354 8.79875 13.3354C5.85323 13.3354 3.46541 10.9476 3.46541 8.00212C3.46541 5.0566 5.85323 2.66878 8.79875 2.66878C11.7443 2.66878 14.1321 5.0566 14.1321 8.00212Z" fill="#FCFCFD"/>
</g>
<g id="Shape_2">
<path d="M4.83314 3.1196C4.94957 2.77031 5.32712 2.58153 5.67641 2.69797L7.67641 3.36463C8.02571 3.48106 8.21448 3.85861 8.09805 4.20791C7.98162 4.5572 7.60407 4.74598 7.25478 4.62954L5.25478 3.96288C4.90548 3.84645 4.71671 3.4689 4.83314 3.1196Z" fill="#FCFCFD"/>
<path d="M4.86927 7.03224C5.03393 6.70293 5.43438 6.56944 5.7637 6.7341L7.09704 7.40077C7.42635 7.56543 7.55984 7.96588 7.39518 8.2952C7.23052 8.62451 6.83007 8.758 6.50075 8.59334L5.16742 7.92667C4.8381 7.76201 4.70462 7.36156 4.86927 7.03224Z" fill="#FCFCFD"/>
<path d="M9.93698 13.1351C10.1973 12.8748 10.1973 12.4527 9.93698 12.1923C9.67663 11.932 9.25452 11.932 8.99417 12.1923L7.99417 13.1923C7.73382 13.4527 7.73382 13.8748 7.99417 14.1351C8.25452 14.3955 8.67663 14.3955 8.93698 14.1351L9.93698 13.1351Z" fill="#FCFCFD"/>
<path d="M9.99417 9.19233C10.2545 8.93198 10.6766 8.93198 10.937 9.19233L11.2703 9.52567C11.5307 9.78601 11.5307 10.2081 11.2703 10.4685C11.01 10.7288 10.5879 10.7288 10.3275 10.4685L9.99417 10.1351C9.73382 9.87479 9.73382 9.45268 9.99417 9.19233Z" fill="#FCFCFD"/>
<path d="M6.06184 10.9619C6.2265 10.6325 6.09302 10.2321 5.7637 10.0674C5.43438 9.90278 5.03393 10.0363 4.86927 10.3656L4.20261 11.6989C4.03795 12.0282 4.17143 12.4287 4.50075 12.5933C4.83007 12.758 5.23052 12.6245 5.39518 12.2952L6.06184 10.9619Z" fill="#FCFCFD"/>
<path d="M15.3952 7.69891C15.5598 8.02823 15.4264 8.42868 15.097 8.59334L13.7637 9.26C13.4344 9.42466 13.0339 9.29118 12.8693 8.96186C12.7046 8.63254 12.8381 8.23209 13.1674 8.06744L14.5008 7.40077C14.8301 7.23611 15.2305 7.36959 15.3952 7.69891Z" fill="#FCFCFD"/>
<path d="M11.4314 5.54124C11.5478 5.19194 11.359 4.8144 11.0097 4.69797C10.6605 4.58153 10.2829 4.77031 10.1665 5.1196L9.83314 6.1196C9.71671 6.4689 9.90548 6.84645 10.2548 6.96288C10.6041 7.07931 10.9816 6.89054 11.0981 6.54124L11.4314 5.54124Z" fill="#FCFCFD"/>
</g>
</g>
</svg>
