<svg width="13" height="12" viewBox="0 0 13 12" fill="none" xmlns="http://www.w3.org/2000/svg">
<g id="Icons/Sketch/Filled">
<path id="Vector" d="M5.50282 1.56124C5.60737 1.37827 5.45257 1.15597 5.24468 1.19061L4.27297 1.35256C4.12444 1.37732 4.03134 1.52678 4.07461 1.671L4.37727 2.67988C4.4404 2.89032 4.72479 2.92284 4.83379 2.73208L5.50282 1.56124Z" fill="#FCFCFD"/>
<path id="Vector_2" d="M3.21801 2.29353C3.16227 2.10774 2.92625 2.05427 2.79966 2.20124C2.4071 2.657 2.03633 3.13583 1.65239 3.59657C1.63102 3.62221 1.61064 3.64839 1.59123 3.67507C1.48711 3.81821 1.60541 3.99777 1.78241 3.99777H3.39327C3.56074 3.99777 3.68085 3.83634 3.63273 3.67593L3.21801 2.29353Z" fill="#FCFCFD"/>
<path id="Vector_3" d="M1.70907 4.99951C1.5409 4.99951 1.4215 5.16343 1.50571 5.30898C1.53273 5.35568 1.56248 5.40133 1.59498 5.44563L5.19159 10.3501C5.25173 10.4321 5.31811 10.5059 5.3895 10.5714C5.54482 10.714 5.73947 10.5497 5.67737 10.3482L4.08349 5.17588C4.05119 5.07103 3.95429 4.99951 3.84458 4.99951H1.70907Z" fill="#FCFCFD"/>
<path id="Vector_4" d="M7.12269 10.3483C7.06059 10.5498 7.25519 10.7142 7.41054 10.5716C7.48199 10.506 7.54844 10.4322 7.60864 10.3501L11.2052 5.44563C11.2377 5.40133 11.2675 5.35568 11.2945 5.30898C11.3787 5.16343 11.2593 4.99951 11.0911 4.99951H8.95559C8.84584 4.99951 8.74895 5.07103 8.71665 5.17588L7.12269 10.3483Z" fill="#FCFCFD"/>
<path id="Vector_5" d="M11.0188 3.99784C11.1958 3.99784 11.3141 3.81828 11.21 3.67513C11.1906 3.64846 11.1702 3.62228 11.1488 3.59664C10.7649 3.13588 10.3941 2.65701 10.0015 2.20123C9.87491 2.05427 9.63891 2.10774 9.58316 2.29353L9.16841 3.676C9.12031 3.83641 9.24041 3.99784 9.40791 3.99784H11.0188Z" fill="#FCFCFD"/>
<path id="Vector_6" d="M8.52667 1.35258C8.67517 1.37733 8.76827 1.52679 8.72502 1.67101L8.42232 2.67997C8.35922 2.89041 8.07482 2.92292 7.96582 2.73217L7.29672 1.56125C7.19217 1.37827 7.34702 1.15597 7.55487 1.19061L8.52667 1.35258Z" fill="#FCFCFD"/>
<path id="Vector_7" d="M6.40083 2.00732L7.32553 3.62551C7.42078 3.79217 7.30043 3.99954 7.10848 3.99954H5.69323C5.50128 3.99954 5.38094 3.79217 5.47618 3.62551L6.40083 2.00732Z" fill="#FCFCFD"/>
<path id="Vector_8" d="M6.63916 8.52273C6.56676 8.75808 6.23366 8.75808 6.16126 8.52273L5.17675 5.32303C5.12729 5.16228 5.2475 4.99951 5.41571 4.99951H7.38476C7.55296 4.99951 7.67316 5.16228 7.62371 5.32303L6.63916 8.52273Z" fill="#FCFCFD"/>
</g>
</svg>
