<svg width="56" height="55" viewBox="0 0 56 55" fill="none" xmlns="http://www.w3.org/2000/svg">
<g id="http (2) 1" clip-path="url(#clip0_1_1119)">
<path id="Vector" d="M35.4024 25.6797C35.0949 25.6797 34.8238 25.7833 34.5921 25.9969C34.3576 26.2071 34.2422 26.4753 34.2422 26.8013C34.2422 27.1274 34.3576 27.3955 34.5921 27.6057C34.8238 27.816 35.0949 27.9225 35.4024 27.9225C35.7188 27.9225 35.984 27.816 36.2001 27.5994C36.4162 27.3833 36.5228 27.1181 36.5228 26.8013C36.5228 26.4933 36.4133 26.2285 36.1942 26.0091C35.9748 25.7896 35.71 25.6797 35.4024 25.6797Z" fill="white"/>
<path id="Vector_2" d="M35.4059 29.8672C35.0983 29.8672 34.8302 29.9767 34.6019 30.1962C34.3736 30.4156 34.2578 30.6838 34.2578 31.0006C34.2578 31.2993 34.3673 31.5671 34.5868 31.805C34.8151 32.0274 35.0891 32.1369 35.4059 32.1369C35.7135 32.1369 35.9782 32.0274 36.1973 31.805C36.4167 31.5855 36.5263 31.3237 36.5263 31.0157C36.5263 30.6989 36.4167 30.4278 36.1973 30.202C35.9782 29.9801 35.7135 29.8672 35.4059 29.8672Z" fill="white"/>
<path id="Vector_3" d="M23.2163 24.5307H22.5982L22.6104 23.3423C22.6104 23.0532 22.5101 22.8153 22.3057 22.6294C22.1047 22.4284 21.8706 22.3281 21.6087 22.3281C21.3255 22.3281 21.088 22.4255 20.8899 22.6235C20.6919 22.8216 20.5916 23.062 20.5916 23.3423V24.5307H20.2626C20.0071 24.5307 19.7876 24.6159 19.6051 24.7896C19.4192 24.9604 19.3281 25.1736 19.3281 25.4295C19.3281 25.667 19.4133 25.8773 19.59 26.0602C19.7666 26.2461 19.992 26.3376 20.2626 26.3376H20.6067V30.7339C20.6067 30.8833 20.631 31.0176 20.6797 31.1363C20.7255 31.2551 20.7985 31.3617 20.8962 31.459C21.0909 31.6604 21.3255 31.7607 21.6087 31.7607C21.8979 31.7607 22.1383 31.6604 22.3271 31.459C22.516 31.2551 22.6104 31.0142 22.6104 30.7339L22.5982 26.3527H23.2041C23.4601 26.3527 23.6762 26.2612 23.8558 26.0816C24.0354 25.902 24.1269 25.6884 24.1269 25.4417C24.1269 25.1861 24.0388 24.9696 23.8621 24.7959C23.6884 24.6192 23.4723 24.5307 23.2163 24.5307Z" fill="white"/>
<path id="Vector_4" d="M17.7822 24.5307H17.1611L17.1762 23.3423C17.1762 23.0532 17.073 22.8153 16.872 22.6294C16.671 22.4284 16.4364 22.3281 16.1746 22.3281C15.8914 22.3281 15.6509 22.4255 15.4558 22.6235C15.2582 22.8216 15.1575 23.062 15.1575 23.3423V24.5307H14.8285C14.5729 24.5307 14.3535 24.6159 14.168 24.7896C13.985 24.9604 13.8906 25.1736 13.8906 25.4295C13.8906 25.667 13.9792 25.8773 14.1558 26.0602C14.3325 26.2461 14.5545 26.3376 14.8285 26.3376H15.1696V30.7339C15.1696 30.8833 15.194 31.0176 15.2426 31.1363C15.2913 31.2551 15.3647 31.3617 15.4621 31.459C15.6539 31.6604 15.8914 31.7607 16.1746 31.7607C16.4637 31.7607 16.7042 31.6604 16.8934 31.459C17.0818 31.2551 17.1762 31.0142 17.1762 30.7339L17.1611 26.3527H17.77C18.023 26.3527 18.2421 26.2612 18.4217 26.0816C18.6013 25.902 18.6927 25.6884 18.6927 25.4417C18.6927 25.1861 18.6046 24.9696 18.4279 24.7959C18.2513 24.6192 18.0381 24.5307 17.7822 24.5307Z" fill="white"/>
<path id="Vector_5" d="M10.4775 24.4057C9.90469 24.4057 9.3873 24.5396 8.92111 24.814L8.62906 25.012V22.3584C8.62906 22.0688 8.52835 21.8309 8.32735 21.6484C8.13265 21.4445 7.89514 21.3438 7.61484 21.3438C7.33202 21.3438 7.09116 21.4445 6.89016 21.6484C6.68623 21.8494 6.58594 22.0869 6.58594 22.3584V30.7646C6.58594 31.0386 6.68623 31.2765 6.89016 31.4775C7.09116 31.6785 7.33202 31.7822 7.61484 31.7822C7.89514 31.7822 8.13558 31.6814 8.33364 31.4834C8.5317 31.2853 8.62906 31.0478 8.62906 30.7646V27.2943C8.62906 26.9683 8.74781 26.6909 8.98531 26.4622C9.22281 26.234 9.50899 26.1211 9.84385 26.1211C10.1607 26.1211 10.4317 26.2369 10.66 26.4715C10.8887 26.7031 11.0041 26.9834 11.0041 27.3095V30.7646C11.0041 31.0478 11.1048 31.2887 11.3058 31.4897C11.5097 31.6936 11.7502 31.7943 12.0334 31.7943C12.3229 31.7943 12.5605 31.6936 12.7459 31.4897C12.9469 31.2887 13.0476 31.0478 13.0476 30.7646V26.9771C13.0476 26.2218 12.8403 25.6276 12.4291 25.1979C11.9084 24.6675 11.2601 24.4057 10.4775 24.4057Z" fill="white"/>
<path id="Vector_6" d="M31.96 26.1335C31.814 25.8927 31.6344 25.6644 31.4213 25.4512C30.7545 24.7836 29.9568 24.4517 29.0248 24.4517C28.3429 24.4517 27.7215 24.6221 27.1584 24.9666C26.8508 24.2016 25.2734 23.9947 25.2734 25.4751V33.6409C25.2734 33.9426 25.3737 34.1831 25.5747 34.3689C25.7787 34.5704 26.0195 34.6706 26.3028 34.6706C26.5919 34.6706 26.8235 34.5641 27.0123 34.3689C27.21 34.1679 27.3166 33.9363 27.3166 33.656V30.8228C27.8373 31.1026 28.4067 31.2461 29.0248 31.2461C29.9841 31.2461 30.7881 30.9201 31.4427 30.2651C32.0943 29.613 32.4204 28.8086 32.4204 27.8489C32.4204 27.4373 32.3562 27.0533 32.2252 26.6941C32.1644 26.5024 32.0729 26.3131 31.96 26.1335ZM28.9912 29.2991C28.1663 29.2991 27.4991 28.6319 27.4991 27.8095C27.4991 26.9866 28.1663 26.3165 28.9912 26.3165C29.8133 26.3165 30.4805 26.9866 30.4805 27.8095C30.4805 28.6319 29.8137 29.2991 28.9912 29.2991Z" fill="white"/>
<path id="Vector_7" d="M50.7116 16.4449H48.9471C47.0101 12.78 44.15 9.67945 40.6408 7.45003C36.8386 5.03471 32.4377 3.75781 27.9138 3.75781C26.0901 3.75781 24.279 3.96384 22.5305 4.37045C21.9527 4.50515 21.5935 5.08213 21.7278 5.65952C21.862 6.23733 22.439 6.59611 23.0168 6.46225C24.6059 6.09256 26.2533 5.905 27.9138 5.905C32.6961 5.905 37.1932 7.44373 40.8489 10.1742H35.931C33.5509 10.1742 31.6144 12.1116 31.6144 14.4929C31.6144 15.1823 31.7843 15.8495 32.0885 16.4445H9.34568C10.9776 13.7187 13.199 11.3672 15.8489 9.5821C16.3407 9.25103 16.4708 8.58383 16.1397 8.09204C15.8086 7.60025 15.1414 7.47017 14.6492 7.80125C11.3859 9.9992 8.71206 12.9785 6.88043 16.4445H5.06642C2.48829 16.4449 0.390625 18.5435 0.390625 21.1228V33.7307C0.390625 36.3117 2.48829 38.4119 5.06642 38.4119H6.75203C7.92024 40.6871 9.44177 42.7508 11.2549 44.5312C11.2562 44.532 11.257 44.5333 11.2583 44.5341C12.4143 45.6692 13.6887 46.6893 15.0651 47.5755C18.8962 50.042 23.3391 51.3458 27.9133 51.3458C32.4876 51.3458 36.9305 50.042 40.7616 47.5755C44.2986 45.2983 47.1608 42.1398 49.0746 38.4119H50.7116C53.2914 38.4119 55.3907 36.3117 55.3907 33.7307V21.1228C55.3907 18.5435 53.2918 16.4449 50.7116 16.4449ZM33.762 14.4929C33.762 13.2957 34.7351 12.3218 35.931 12.3218H43.3078C44.513 13.5471 45.5818 14.9276 46.4856 16.4449H34.9835C34.2462 16.082 33.762 15.3195 33.762 14.4929ZM20.2889 38.4119C21.2729 38.6335 21.9799 39.5096 21.9799 40.5281C21.9799 41.7252 21.0069 42.6992 19.8105 42.6992H12.4781C11.2214 41.4239 10.1161 39.9867 9.19966 38.4119H20.2889ZM53.2431 33.7307C53.2431 35.128 52.1076 36.2643 50.7116 36.2643H38.6992C38.1063 36.2643 37.6254 36.7452 37.6254 37.3381C37.6254 37.931 38.1063 38.4119 38.6992 38.4119H46.6274C42.7837 45.0163 35.6171 49.1982 27.9138 49.1982C23.167 49.1982 18.6247 47.6104 14.9371 44.8468H19.8109C22.191 44.8468 24.1275 42.9094 24.1275 40.5281C24.1275 39.7648 23.927 39.0409 23.5732 38.4119H30.1184C30.7113 38.4119 31.1918 37.931 31.1918 37.3381C31.1918 36.7452 30.7113 36.2643 30.1184 36.2643H20.3913C20.3896 36.2643 20.3879 36.2643 20.3858 36.2643H5.06642C3.67245 36.2643 2.53823 35.128 2.53823 33.7307V21.1228C2.53823 19.7276 3.67245 18.5921 5.06642 18.5921H7.53168H7.53545H7.53839H34.7518C34.7539 18.5921 34.756 18.5926 34.7586 18.5926C34.7598 18.5926 34.7615 18.5921 34.7628 18.5921H48.2887H48.2916H48.2954H50.7116C52.1076 18.5921 53.2431 19.7272 53.2431 21.1228V33.7307Z" fill="white"/>
<path id="Vector_8" d="M46.3143 22.0038L42.7576 30.8455C42.7148 30.9492 42.6875 31.0591 42.6875 31.1716C42.6875 32.5215 44.3622 32.7288 44.7671 31.6776L48.3389 22.8141C48.3846 22.7138 48.409 22.598 48.409 22.4763C48.409 21.0684 46.7007 20.9526 46.3143 22.0038Z" fill="white"/>
<path id="Vector_9" d="M43.784 22.2119C43.784 20.8012 42.0728 20.6887 41.6888 21.7365L38.1326 30.5816C38.0868 30.6853 38.0625 30.7948 38.0625 30.9077C38.0625 32.2542 39.7372 32.4615 40.1421 31.4104L43.7139 22.5472C43.7596 22.4465 43.784 22.3311 43.784 22.2119Z" fill="white"/>
<path id="Vector_10" d="M18.6687 7.87567C18.8298 7.87567 18.9939 7.83917 19.1479 7.76238L19.1664 7.75314C19.6968 7.48795 19.9116 6.84299 19.6464 6.3126C19.3812 5.7822 18.7363 5.56694 18.2059 5.83255L18.1874 5.84137C17.657 6.10698 17.4422 6.75152 17.7074 7.28191C17.8958 7.65831 18.2747 7.87567 18.6687 7.87567Z" fill="white"/>
<path id="Vector_11" d="M34.4311 36.2656H34.4097C33.8168 36.2656 33.3359 36.7465 33.3359 37.3394C33.3359 37.9323 33.8168 38.4132 34.4097 38.4132H34.4311C35.0241 38.4132 35.5049 37.9323 35.5049 37.3394C35.5049 36.7465 35.0241 36.2656 34.4311 36.2656Z" fill="white"/>
</g>
<defs>
<clipPath id="clip0_1_1119">
<rect width="55" height="55" fill="white" transform="translate(0.5)"/>
</clipPath>
</defs>
</svg>
