<svg width="47" height="45" viewBox="0 0 47 45" fill="none" xmlns="http://www.w3.org/2000/svg">
<g id="nft 1" clip-path="url(#clip0_1_956)">
<g id="Group">
<g id="Group_2">
<g id="Group_3">
<path id="Vector" d="M14.4285 26.2962V19.3801L18.8354 26.1511C18.9172 26.2764 19.0046 26.2151 19.0046 26.0627V19.3672" stroke="#1B1728" stroke-width="2.3" stroke-miterlimit="10" stroke-linecap="round" stroke-linejoin="round"/>
</g>
<g id="Group_4">
<path id="Vector_2" d="M25.8725 19.3672H23.0847V26.3915" stroke="#1B1728" stroke-width="2.3" stroke-miterlimit="10" stroke-linecap="round" stroke-linejoin="round"/>
<path id="Vector_3" d="M23.0847 22.7422H25.651" stroke="#1B1728" stroke-width="2.3" stroke-miterlimit="10" stroke-linecap="round" stroke-linejoin="round"/>
</g>
<g id="Group_5">
<path id="Vector_4" d="M29.3035 19.3672H32.7794" stroke="#1B1728" stroke-width="2.3" stroke-miterlimit="10" stroke-linecap="round" stroke-linejoin="round"/>
<path id="Vector_5" d="M31.0339 19.5938V26.3456" stroke="#1B1728" stroke-width="2.3" stroke-miterlimit="10" stroke-linecap="round" stroke-linejoin="round"/>
</g>
</g>
<path id="Vector_6" d="M26.5168 8.68907L23.6047 7.00781L9.85425 14.9467V30.8243L23.6047 38.7632L37.3552 30.8243V14.9467L33.3611 12.6407" stroke="#1B1728" stroke-width="2.3" stroke-miterlimit="10" stroke-linecap="round" stroke-linejoin="round"/>
<path id="Vector_7" d="M43.4697 13.27C44.4395 13.27 45.2258 12.4837 45.2258 11.5139C45.2258 10.544 44.4395 9.75781 43.4697 9.75781C42.4998 9.75781 41.7136 10.544 41.7136 11.5139C41.7136 12.4837 42.4998 13.27 43.4697 13.27Z" stroke="#1B1728" stroke-width="2.3" stroke-miterlimit="10" stroke-linecap="round" stroke-linejoin="round"/>
<path id="Vector_8" d="M43.4502 24.6371C44.42 24.6371 45.2062 23.8509 45.2062 22.8811C45.2062 21.9112 44.42 21.125 43.4502 21.125C42.4803 21.125 41.6941 21.9112 41.6941 22.8811C41.6941 23.8509 42.4803 24.6371 43.4502 24.6371Z" stroke="#1B1728" stroke-width="2.3" stroke-miterlimit="10" stroke-linecap="round" stroke-linejoin="round"/>
<path id="Vector_9" d="M41.6923 22.8828H37.4519" stroke="#1B1728" stroke-width="2.3" stroke-miterlimit="10" stroke-linecap="round" stroke-linejoin="round"/>
<path id="Vector_10" d="M43.4707 13.2734V17.0698H37.4519" stroke="#1B1728" stroke-width="2.3" stroke-miterlimit="10" stroke-linecap="round" stroke-linejoin="round"/>
<path id="Vector_11" d="M43.4697 36.0043C44.4395 36.0043 45.2258 35.2181 45.2258 34.2483C45.2258 33.2784 44.4395 32.4922 43.4697 32.4922C42.4998 32.4922 41.7136 33.2784 41.7136 34.2483C41.7136 35.2181 42.4998 36.0043 43.4697 36.0043Z" stroke="#1B1728" stroke-width="2.3" stroke-miterlimit="10" stroke-linecap="round" stroke-linejoin="round"/>
<path id="Vector_12" d="M43.4707 32.4917V28.6953H37.4519" stroke="#1B1728" stroke-width="2.3" stroke-miterlimit="10" stroke-linecap="round" stroke-linejoin="round"/>
<path id="Vector_13" d="M3.73922 13.27C4.70907 13.27 5.49529 12.4837 5.49529 11.5139C5.49529 10.544 4.70907 9.75781 3.73922 9.75781C2.76937 9.75781 1.98315 10.544 1.98315 11.5139C1.98315 12.4837 2.76937 13.27 3.73922 13.27Z" stroke="#1B1728" stroke-width="2.3" stroke-miterlimit="10" stroke-linecap="round" stroke-linejoin="round"/>
<path id="Vector_14" d="M3.76266 24.6371C4.73251 24.6371 5.51873 23.8509 5.51873 22.8811C5.51873 21.9112 4.73251 21.125 3.76266 21.125C2.79281 21.125 2.00659 21.9112 2.00659 22.8811C2.00659 23.8509 2.79281 24.6371 3.76266 24.6371Z" stroke="#1B1728" stroke-width="2.3" stroke-miterlimit="10" stroke-linecap="round" stroke-linejoin="round"/>
<path id="Vector_15" d="M5.5144 22.8828H9.75479" stroke="#1B1728" stroke-width="2.3" stroke-miterlimit="10" stroke-linecap="round" stroke-linejoin="round"/>
<path id="Vector_16" d="M3.74097 13.2734V17.0698H9.75972" stroke="#1B1728" stroke-width="2.3" stroke-miterlimit="10" stroke-linecap="round" stroke-linejoin="round"/>
<path id="Vector_17" d="M3.73922 36.0043C4.70907 36.0043 5.49529 35.2181 5.49529 34.2483C5.49529 33.2784 4.70907 32.4922 3.73922 32.4922C2.76937 32.4922 1.98315 33.2784 1.98315 34.2483C1.98315 35.2181 2.76937 36.0043 3.73922 36.0043Z" stroke="#1B1728" stroke-width="2.3" stroke-miterlimit="10" stroke-linecap="round" stroke-linejoin="round"/>
<path id="Vector_18" d="M3.74097 32.4917V28.6953H9.75972" stroke="#1B1728" stroke-width="2.3" stroke-miterlimit="10" stroke-linecap="round" stroke-linejoin="round"/>
</g>
</g>
<defs>
<clipPath id="clip0_1_956">
<rect width="46" height="45" fill="white" transform="translate(0.819092)"/>
</clipPath>
</defs>
</svg>
