<svg width="17" height="18" viewBox="0 0 17 18" fill="none" xmlns="http://www.w3.org/2000/svg">
<g id="ph:linkedin-logo">
<path id="Vector" d="M6.64209 5.81649C6.64209 5.97371 6.59547 6.1274 6.50812 6.25812C6.42077 6.38885 6.29662 6.49073 6.15137 6.5509C6.00612 6.61107 5.84629 6.62681 5.69209 6.59614C5.53789 6.56546 5.39625 6.48975 5.28507 6.37858C5.1739 6.26741 5.09819 6.12577 5.06752 5.97157C5.03685 5.81737 5.05259 5.65754 5.11276 5.51228C5.17292 5.36703 5.27481 5.24288 5.40553 5.15553C5.53626 5.06819 5.68995 5.02157 5.84717 5.02157C6.05799 5.02157 6.26019 5.10532 6.40926 5.25439C6.55834 5.40347 6.64209 5.60566 6.64209 5.81649ZM15.1213 3.43172V14.5606C15.1213 14.8417 15.0096 15.1113 14.8108 15.3101C14.6121 15.5089 14.3425 15.6205 14.0614 15.6205H2.93245C2.65135 15.6205 2.38176 15.5089 2.18299 15.3101C1.98423 15.1113 1.87256 14.8417 1.87256 14.5606V3.43172C1.87256 3.15062 1.98423 2.88103 2.18299 2.68226C2.38176 2.48349 2.65135 2.37183 2.93245 2.37183H14.0614C14.3425 2.37183 14.6121 2.48349 14.8108 2.68226C15.0096 2.88103 15.1213 3.15062 15.1213 3.43172ZM14.0614 14.5606V3.43172H2.93245V14.5606H14.0614ZM5.84717 7.40633C5.70662 7.40633 5.57182 7.46217 5.47244 7.56155C5.37305 7.66093 5.31722 7.79573 5.31722 7.93628V12.1759C5.31722 12.3164 5.37305 12.4512 5.47244 12.5506C5.57182 12.65 5.70662 12.7058 5.84717 12.7058C5.98772 12.7058 6.12251 12.65 6.2219 12.5506C6.32128 12.4512 6.37712 12.3164 6.37712 12.1759V7.93628C6.37712 7.79573 6.32128 7.66093 6.2219 7.56155C6.12251 7.46217 5.98772 7.40633 5.84717 7.40633ZM9.82178 7.40633C9.3447 7.40631 8.87858 7.54937 8.48366 7.81704C8.45468 7.68988 8.37983 7.57787 8.27343 7.50245C8.16703 7.42702 8.03655 7.39348 7.90697 7.40825C7.77739 7.42301 7.6578 7.48504 7.57109 7.58246C7.48438 7.67988 7.43665 7.80586 7.43701 7.93628V12.1759C7.43701 12.3164 7.49285 12.4512 7.59223 12.5506C7.69161 12.65 7.82641 12.7058 7.96696 12.7058C8.10751 12.7058 8.2423 12.65 8.34169 12.5506C8.44107 12.4512 8.49691 12.3164 8.49691 12.1759V9.7911C8.49691 9.43972 8.63649 9.10273 8.88495 8.85427C9.13341 8.60581 9.4704 8.46623 9.82178 8.46623C10.1732 8.46623 10.5101 8.60581 10.7586 8.85427C11.0071 9.10273 11.1466 9.43972 11.1466 9.7911V12.1759C11.1466 12.3164 11.2025 12.4512 11.3019 12.5506C11.4012 12.65 11.536 12.7058 11.6766 12.7058C11.8171 12.7058 11.9519 12.65 12.0513 12.5506C12.1507 12.4512 12.2065 12.3164 12.2065 12.1759V9.7911C12.2065 9.15862 11.9553 8.55204 11.5081 8.10481C11.0608 7.65758 10.4543 7.40633 9.82178 7.40633Z" fill="white"/>
</g>
</svg>
