<svg width="25" height="24" viewBox="0 0 25 24" fill="none" xmlns="http://www.w3.org/2000/svg">
<g id="icons/Plus Square/Line">
<path id="Shape" fill-rule="evenodd" clip-rule="evenodd" d="M12.8 3.99951C10.8478 3.99951 9.04821 4.16052 7.60376 4.35129C6.30377 4.52298 5.32351 5.50324 5.15182 6.80322C4.96105 8.24767 4.80005 10.0473 4.80005 11.9995C4.80005 13.9517 4.96105 15.7513 5.15182 17.1958C5.32351 18.4958 6.30377 19.476 7.60375 19.6477C9.04821 19.8385 10.8478 19.9995 12.8 19.9995C14.7523 19.9995 16.5519 19.8385 17.9963 19.6477C19.2963 19.476 20.2766 18.4958 20.4483 17.1958C20.639 15.7513 20.8 13.9517 20.8 11.9995C20.8 10.0473 20.639 8.24767 20.4483 6.80322C20.2766 5.50324 19.2963 4.52298 17.9963 4.35129C16.5519 4.16052 14.7523 3.99951 12.8 3.99951ZM7.34189 2.3685C5.14509 2.65864 3.45917 4.34455 3.16904 6.54135C2.96958 8.05159 2.80005 9.94079 2.80005 11.9995C2.80005 14.0582 2.96958 15.9474 3.16904 17.4577C3.45917 19.6545 5.14509 21.3404 7.34189 21.6305C8.85213 21.83 10.7413 21.9995 12.8 21.9995C14.8588 21.9995 16.748 21.83 18.2582 21.6305C20.455 21.3404 22.1409 19.6545 22.4311 17.4577C22.6305 15.9474 22.8 14.0582 22.8 11.9995C22.8 9.94079 22.6305 8.05159 22.4311 6.54135C22.1409 4.34456 20.455 2.65864 18.2582 2.3685C16.748 2.16905 14.8588 1.99951 12.8 1.99951C10.7413 1.99951 8.85213 2.16905 7.34189 2.3685Z" fill="#B1B5C4"/>
<path id="Shape_2" fill-rule="evenodd" clip-rule="evenodd" d="M12.8 16.9995C13.3523 16.9995 13.8 16.5518 13.8 15.9995V12.9995H16.8C17.3523 12.9995 17.8 12.5518 17.8 11.9995C17.8 11.4472 17.3523 10.9995 16.8 10.9995H13.8V7.99951C13.8 7.44723 13.3523 6.99951 12.8 6.99951C12.2478 6.99951 11.8 7.44723 11.8 7.99951V10.9995H8.80005C8.24776 10.9995 7.80005 11.4472 7.80005 11.9995C7.80005 12.5518 8.24776 12.9995 8.80005 12.9995H11.8V15.9995C11.8 16.5518 12.2478 16.9995 12.8 16.9995Z" fill="#B1B5C4"/>
</g>
</svg>
