<svg width="55" height="55" viewBox="0 0 55 55" fill="none" xmlns="http://www.w3.org/2000/svg">
<g id="shoes 1">
<g id="g1071">
<g id="g1073">
<g id="Clip path group">
<mask id="mask0_42_395" style="mask-type:luminance" maskUnits="userSpaceOnUse" x="0" y="0" width="55" height="55">
<g id="clipPath1079">
<path id="path1077" d="M0 3.8147e-06H55V55H0V3.8147e-06Z" fill="white"/>
</g>
</mask>
<g mask="url(#mask0_42_395)">
<g id="g1075">
<g id="g1081">
<path id="path1083" d="M25.1788 35.4977L26.2717 36.6933C31.1557 42.0364 38.0609 45.0798 45.2998 45.0798H53.925C53.925 47.655 51.8338 49.7408 49.2586 49.7344L38.133 49.7062C33.7382 49.6952 29.5037 48.0551 26.2478 45.1034L5.1926 26.0153C1.82664 22.9639 3.14986 17.3991 7.52902 16.1893L18.6562 28.3621" stroke="white" stroke-width="2" stroke-miterlimit="10" stroke-linecap="round" stroke-linejoin="round"/>
</g>
<g id="g1085">
<path id="path1087" d="M7.15625 16.1876C7.99242 10.0224 13.277 5.27069 19.6714 5.27069L20.2294 7.30559C21.3022 11.2191 25.3634 13.5038 29.2651 12.3891C31.2411 11.8245 33.3214 12.8605 34.0615 14.7776L40.4608 31.3556C41.3193 33.5797 43.149 35.2883 45.4265 35.9929L47.7563 36.7137C51.4237 37.8482 53.9244 41.2393 53.9244 45.0781" stroke="white" stroke-width="2" stroke-miterlimit="10" stroke-linecap="round" stroke-linejoin="round"/>
</g>
<g id="g1089">
<path id="path1091" d="M13.6226 22.8516C15.3905 21.2346 16.4993 18.9091 16.4993 16.3246C16.4993 12.792 14.428 9.74341 11.4336 8.32673" stroke="white" stroke-width="2" stroke-miterlimit="10" stroke-linecap="round" stroke-linejoin="round"/>
</g>
<g id="g1093">
<path id="path1095" d="M35.0624 17.3669L32.6719 18.4531" stroke="white" stroke-width="2" stroke-miterlimit="10" stroke-linecap="round" stroke-linejoin="round"/>
</g>
<g id="g1097">
<path id="path1099" d="M37.0319 22.7614L34.6328 23.8516" stroke="white" stroke-width="2" stroke-miterlimit="10" stroke-linecap="round" stroke-linejoin="round"/>
</g>
<g id="g1101">
<path id="path1103" d="M38.9701 28.3029L37.2812 29.0703" stroke="white" stroke-width="2" stroke-miterlimit="10" stroke-linecap="round" stroke-linejoin="round"/>
</g>
<g id="g1105">
<path id="path1107" d="M42.0091 33.8382C38.4754 36.5066 34.5585 38.6945 30.3555 40.3047" stroke="white" stroke-width="2" stroke-miterlimit="10" stroke-linecap="round" stroke-linejoin="round"/>
</g>
<g id="g1109">
<path id="path1111" d="M36.1816 37.0703L26.4023 20.1895C24.7084 17.2658 26.0826 13.5221 29.2657 12.3884" stroke="white" stroke-width="2" stroke-miterlimit="10" stroke-linecap="round" stroke-linejoin="round"/>
</g>
<g id="g1113">
<path id="path1115" d="M38.1342 49.7031H16.293" stroke="white" stroke-width="2" stroke-miterlimit="10" stroke-linecap="round" stroke-linejoin="round"/>
</g>
<g id="g1117">
<path id="path1119" d="M10.8146 49.7031H3.28906" stroke="white" stroke-width="2" stroke-miterlimit="10" stroke-linecap="round" stroke-linejoin="round"/>
</g>
<g id="g1121">
<path id="path1123" d="M4.0223 43.4062H1.07422" stroke="white" stroke-width="2" stroke-miterlimit="10" stroke-linecap="round" stroke-linejoin="round"/>
</g>
<g id="g1125">
<path id="path1127" d="M15.9718 43.4062H9.10938" stroke="white" stroke-width="2" stroke-miterlimit="10" stroke-linecap="round" stroke-linejoin="round"/>
</g>
<g id="g1129">
<path id="path1131" d="M17.1222 37.1094H4.02344" stroke="white" stroke-width="2" stroke-miterlimit="10" stroke-linecap="round" stroke-linejoin="round"/>
</g>
</g>
</g>
</g>
</g>
</g>
</g>
</svg>
