<svg width="55" height="55" viewBox="0 0 55 55" fill="none" xmlns="http://www.w3.org/2000/svg">
<g id="starry-night 1" clip-path="url(#clip0_42_355)">
<g id="Group">
<path id="Vector" d="M53.3828 41.9922H55.0003V43.6097H53.3828V41.9922Z" fill="white"/>
<path id="Vector_2" d="M0 4.85938V50.1474H55V45.2239H53.3825V48.5299H1.61751V6.47688H53.3825V40.3714H55V4.85938H0Z" fill="white"/>
<path id="Vector_3" d="M8.03508 9.69563V8.07812H3.24219V46.8264H51.7618V8.07812H12.8876V9.69563H50.1443V25.7988H45.2377V27.4163H50.1443V29.1057H45.7655L40.913 33.9582H36.4197L32.6456 37.1934H23.4014V28.8022L21.4026 25.8705H18.5489V30.5402L16.1764 24.0558V14.1437L13.0995 11.259H11.3239V14.9806L8.51397 17.7289H7.5536L4.85969 15.1217V9.69552H8.03508V9.69563ZM33.2439 38.8107L37.0181 35.5755H41.5829L46.4355 30.723H50.1444V45.2088H25.8818V42.5193L23.4015 40.0391V38.8106H33.2439V38.8107ZM12.9414 13.328L14.5589 14.8445V24.3425L18.0375 33.8503H20.1664V27.4881H20.5477L21.7839 29.3011V40.7092L24.2642 43.1894V45.2089H9.7065V41.9918H8.08899V45.2089H4.85969V38.8107H8.08899V40.3742H9.7065V34.8103L11.3239 32.5458V22.1439L12.9414 20.5264V13.328ZM6.89905 19.3465H9.1737L11.3239 17.2432V19.8565L9.70639 21.474V32.0276L8.08899 34.2921V37.1933H4.85969V17.3728L6.89905 19.3465Z" fill="white"/>
<path id="Vector_4" d="M9.64844 8.07812H11.2659V9.69563H9.64844V8.07812Z" fill="white"/>
<path id="Vector_5" d="M41.6114 12.875L40.3828 14.1036V17.9774L41.5793 19.3448H45.5163L46.8527 18.0084V14.4384H45.2354V12.875H41.6114ZM45.2351 17.3385L44.8464 17.7272H42.3134L42.0004 17.3695V14.7734L42.2813 14.4924H43.6179V16.0558H45.2352V17.3385H45.2351Z" fill="white"/>
<path id="Vector_6" d="M17.7383 14.5078V16.1253H32.7169L35.5309 19.6271V23.8652L32.7644 26.6933H27.1579L25.0171 23.9191V21.2807L26.8913 19.2909L30.5265 19.3211L32.242 21.2657V22.6314H29.0426V20.9599H27.4251V24.2489H33.8595V20.6541L31.2617 17.7097L26.1982 17.6676L23.3996 20.639V24.4707L26.363 28.3108H33.4448L37.1484 24.5247V19.0578L33.4923 14.5078H17.7383Z" fill="white"/>
<path id="Vector_7" d="M25.8281 29.8587V31.4762H35.8746L39.8285 27.4144H43.6207V25.7969H39.1457L35.1918 29.8587H25.8281Z" fill="white"/>
<path id="Vector_8" d="M6.46875 24.1953H8.08626V25.8128H6.46875V24.1953Z" fill="white"/>
<path id="Vector_9" d="M19.4102 19.3438H21.0277V20.9613H19.4102V19.3438Z" fill="white"/>
<path id="Vector_10" d="M37.2031 11.2578H38.8206V12.8753H37.2031V11.2578Z" fill="white"/>
<path id="Vector_11" d="M46.7969 20.9609H48.4144V22.5784H46.7969V20.9609Z" fill="white"/>
<path id="Vector_12" d="M27.3906 33.8984H29.0081V35.5159H27.3906V33.8984Z" fill="white"/>
</g>
</g>
<defs>
<clipPath id="clip0_42_355">
<rect width="55" height="55" fill="white"/>
</clipPath>
</defs>
</svg>
