<svg width="56" height="55" viewBox="0 0 56 55" fill="none" xmlns="http://www.w3.org/2000/svg">
<g id="trading-card 1" clip-path="url(#clip0_1_1138)">
<g id="Group">
<path id="Vector" d="M48.6206 18.6953V52.0251C48.6206 53.2239 47.6495 54.195 46.4507 54.195H13.8965C12.6977 54.195 11.7266 53.2239 11.7266 52.0251V49.8541" stroke="white" stroke-width="2" stroke-miterlimit="10" stroke-linecap="round" stroke-linejoin="round"/>
<path id="Vector_2" d="M44.2773 5.14844H46.4483C47.6472 5.14844 48.6183 6.11953 48.6183 7.31836V14.9367" stroke="white" stroke-width="2" stroke-miterlimit="10" stroke-linecap="round" stroke-linejoin="round"/>
<path id="Vector_3" d="M7.38281 16.8138V2.97461C7.38281 1.77686 8.35391 0.804688 9.55273 0.804688H42.1069C43.3058 0.804688 44.2769 1.77686 44.2769 2.97461V38.4969" stroke="white" stroke-width="2" stroke-miterlimit="10" stroke-linecap="round" stroke-linejoin="round"/>
<path id="Vector_4" d="M44.2769 42.2534V47.6793C44.2769 48.8781 43.3058 49.8492 42.1069 49.8492H9.55273C8.35391 49.8492 7.38281 48.8781 7.38281 47.6793V20.5703" stroke="white" stroke-width="2" stroke-miterlimit="10" stroke-linecap="round" stroke-linejoin="round"/>
<path id="Vector_5" d="M14.9766 42.2544V39.8672" stroke="white" stroke-width="2" stroke-miterlimit="10" stroke-linecap="round" stroke-linejoin="round"/>
<path id="Vector_6" d="M18.5938 42.2544V39.8672" stroke="white" stroke-width="2" stroke-miterlimit="10" stroke-linecap="round" stroke-linejoin="round"/>
<path id="Vector_7" d="M22.2109 42.2544V39.8672" stroke="white" stroke-width="2" stroke-miterlimit="10" stroke-linecap="round" stroke-linejoin="round"/>
<path id="Vector_8" d="M25.8281 42.2544V39.8672" stroke="white" stroke-width="2" stroke-miterlimit="10" stroke-linecap="round" stroke-linejoin="round"/>
<path id="Vector_9" d="M29.4453 42.2544V39.8672" stroke="white" stroke-width="2" stroke-miterlimit="10" stroke-linecap="round" stroke-linejoin="round"/>
<path id="Vector_10" d="M33.0625 42.2544V39.8672" stroke="white" stroke-width="2" stroke-miterlimit="10" stroke-linecap="round" stroke-linejoin="round"/>
<path id="Vector_11" d="M36.6797 39.8672V42.2544" stroke="white" stroke-width="2" stroke-miterlimit="10" stroke-linecap="round" stroke-linejoin="round"/>
<path id="Vector_12" d="M11.7227 44.4302V37.7024C11.7227 37.1031 12.2085 36.6172 12.8078 36.6172H38.8511C39.4504 36.6172 39.9363 37.1031 39.9363 37.7024V44.4302C39.9363 45.0295 39.4504 45.5154 38.8511 45.5154H12.8077C12.2084 45.5154 11.7227 45.0295 11.7227 44.4302Z" stroke="white" stroke-width="2" stroke-miterlimit="10" stroke-linecap="round" stroke-linejoin="round"/>
<path id="Vector_13" d="M11.7227 32.2769V6.23361C11.7227 5.63431 12.2085 5.14844 12.8078 5.14844H38.8511C39.4504 5.14844 39.9363 5.63431 39.9363 6.23361V32.2769C39.9363 32.8762 39.4504 33.362 38.8511 33.362H12.8077C12.2084 33.362 11.7227 32.8762 11.7227 32.2769Z" stroke="white" stroke-width="2" stroke-miterlimit="10" stroke-linecap="round" stroke-linejoin="round"/>
<path id="Vector_14" d="M18.232 29.5625H14.9766" stroke="white" stroke-width="2" stroke-miterlimit="10" stroke-linecap="round" stroke-linejoin="round"/>
<path id="Vector_15" d="M36.6812 29.5625H33.4258" stroke="white" stroke-width="2" stroke-miterlimit="10" stroke-linecap="round" stroke-linejoin="round"/>
<path id="Vector_16" d="M17.1469 26.3047H14.9766" stroke="white" stroke-width="2" stroke-miterlimit="10" stroke-linecap="round" stroke-linejoin="round"/>
<path id="Vector_17" d="M36.682 26.3047H34.5117" stroke="white" stroke-width="2" stroke-miterlimit="10" stroke-linecap="round" stroke-linejoin="round"/>
<path id="Vector_18" d="M33.4264 20.3731V14.0488C33.4264 13.3627 33.0563 12.73 32.4584 12.3937L26.7614 9.18919C26.1834 8.86402 25.4775 8.86402 24.8994 9.18919L19.2024 12.3937C18.6044 12.73 18.2344 13.3627 18.2344 14.0488V20.3731C18.2344 21.0592 18.6044 21.6919 19.2024 22.0282L24.8994 25.2328C25.4774 25.5579 26.1833 25.5579 26.7614 25.2328L32.4584 22.0282C33.0563 21.6919 33.4264 21.0592 33.4264 20.3731Z" stroke="white" stroke-width="2" stroke-miterlimit="10" stroke-linecap="round" stroke-linejoin="round"/>
<path id="Vector_19" d="M21.4922 18.9391V15.4709C21.4922 15.0789 21.7036 14.7174 22.0453 14.5252L25.3007 12.6941C25.631 12.5082 26.0344 12.5082 26.3647 12.6941L29.6202 14.5252C29.9619 14.7174 30.1733 15.0789 30.1733 15.4709V18.9391C30.1733 19.3311 29.9619 19.6927 29.6202 19.8849L26.3647 21.716C26.0344 21.9018 25.631 21.9018 25.3007 21.716L22.0453 19.8849C21.7037 19.6927 21.4922 19.3311 21.4922 18.9391Z" stroke="white" stroke-width="2" stroke-miterlimit="10" stroke-linecap="round" stroke-linejoin="round"/>
<path id="Vector_20" d="M33.4258 17.2109H36.6812" stroke="white" stroke-width="2" stroke-miterlimit="10" stroke-linecap="round" stroke-linejoin="round"/>
<path id="Vector_21" d="M33.4258 13.9528H35.0077L36.0543 12.9062H36.6812" stroke="white" stroke-width="2" stroke-miterlimit="10" stroke-linecap="round" stroke-linejoin="round"/>
<path id="Vector_22" d="M33.4258 20.4609H35.0077L36.0543 21.5074H36.6812" stroke="white" stroke-width="2" stroke-miterlimit="10" stroke-linecap="round" stroke-linejoin="round"/>
<path id="Vector_23" d="M18.232 17.2109H14.9766" stroke="white" stroke-width="2" stroke-miterlimit="10" stroke-linecap="round" stroke-linejoin="round"/>
<path id="Vector_24" d="M18.232 13.9528H16.6501L15.6036 12.9062H14.9766" stroke="white" stroke-width="2" stroke-miterlimit="10" stroke-linecap="round" stroke-linejoin="round"/>
<path id="Vector_25" d="M18.232 20.4609H16.6501L15.6036 21.5074H14.9766" stroke="white" stroke-width="2" stroke-miterlimit="10" stroke-linecap="round" stroke-linejoin="round"/>
</g>
</g>
<defs>
<clipPath id="clip0_1_1138">
<rect width="55" height="55" fill="white" transform="translate(0.5)"/>
</clipPath>
</defs>
</svg>
