<svg width="13" height="14" viewBox="0 0 13 14" fill="none" xmlns="http://www.w3.org/2000/svg">
<g id="twitter 1" clip-path="url(#clip0_1_686)">
<path id="Vector" d="M12.6668 3.17533C12.2082 3.37651 11.7195 3.50987 11.21 3.57462C11.7341 3.26166 12.1342 2.76987 12.3223 2.1771C11.8336 2.46847 11.294 2.67428 10.7189 2.78914C10.2549 2.29503 9.59352 1.98901 8.87202 1.98901C7.47218 1.98901 6.34522 3.12522 6.34522 4.51812C6.34522 4.71853 6.36218 4.91124 6.40381 5.0947C4.30175 4.99218 2.44173 3.9847 1.1922 2.44997C0.974059 2.82845 0.8461 3.26166 0.8461 3.72801C0.8461 4.60368 1.29704 5.37991 1.9692 5.82931C1.56298 5.8216 1.16445 5.70366 0.826829 5.51789C0.826829 5.5256 0.826829 5.53562 0.826829 5.54564C0.826829 6.77435 1.70327 7.79493 2.85258 8.03003C2.64677 8.08631 2.42245 8.11328 2.18966 8.11328C2.02779 8.11328 1.86437 8.10403 1.71098 8.07012C2.03858 9.07143 2.9682 9.80758 4.07358 9.83147C3.21333 10.5044 2.12106 10.9099 0.9386 10.9099C0.731246 10.9099 0.532371 10.9006 0.333496 10.8752C1.45352 11.5975 2.78089 12.0098 4.21233 12.0098C8.86508 12.0098 11.4088 8.15568 11.4088 4.81489C11.4088 4.70312 11.405 4.5952 11.3996 4.48806C11.9014 4.13193 12.323 3.68716 12.6668 3.17533Z" fill="white"/>
</g>
<defs>
<clipPath id="clip0_1_686">
<rect width="12.3333" height="12.3333" fill="white" transform="translate(0.333496 0.832764)"/>
</clipPath>
</defs>
</svg>
